HIERARCHY
ROOT Hips
{
	OFFSET -14.64140 90.27770 -84.91600
	CHANNELS 6 Xposition Yposition Zposition Zrotation Xrotation Yrotation
	JOINT Spine
	{
		OFFSET 0.00000 13.20850 -1.60436
		CHANNELS 3 Zrotation Xrotation Yrotation
		JOINT Spine1
		{
			OFFSET 0.00000 8.61716 0.00000
			CHANNELS 3 Zrotation Xrotation Yrotation
			JOINT Spine2
			{
				OFFSET 0.00000 8.61717 0.00000
				CHANNELS 3 Zrotation Xrotation Yrotation
				JOINT Spine3
				{
					OFFSET 0.00000 8.61717 0.00000
					CHANNELS 3 Zrotation Xrotation Yrotation
					JOINT Neck
					{
						OFFSET 0.00000 11.07920 1.10792
						CHANNELS 3 Zrotation Xrotation Yrotation
						JOINT Neck1
						{
							OFFSET 0.00000 7.08032 0.00000
							CHANNELS 3 Zrotation Xrotation Yrotation
							JOINT Head
							{
								OFFSET 0.00000 7.08031 0.00000
								CHANNELS 3 Zrotation Xrotation Yrotation
								End site
								{
									OFFSET 0.00000 0.00000 0.00000
								}
							}
						}
					}
					JOINT RightShoulder
					{
						OFFSET -0.01000 7.91373 5.19711
						CHANNELS 3 Zrotation Xrotation Yrotation
						JOINT RightArm
						{
							OFFSET -18.41580 0.00000 0.00000
							CHANNELS 3 Zrotation Xrotation Yrotation
							JOINT RightForeArm
							{
								OFFSET -29.11090 0.00000 0.00000
								CHANNELS 3 Zrotation Xrotation Yrotation
								JOINT RightHand
								{
									OFFSET -24.65040 0.00000 0.00000
									CHANNELS 3 Zrotation Xrotation Yrotation
									JOINT RightHandThumb1
									{
										OFFSET -5.35114 -0.85590 3.97906
										CHANNELS 3 Zrotation Xrotation Yrotation
										JOINT RightHandThumb2
										{
											OFFSET -4.52789 0.00000 0.00000
											CHANNELS 3 Zrotation Xrotation Yrotation
											JOINT RightHandThumb3
											{
												OFFSET -2.46976 0.00000 0.00000
												CHANNELS 3 Zrotation Xrotation Yrotation
												End site
												{
													OFFSET 0.00000 0.00000 0.00000
												}
											}
										}
									}
									JOINT RightHandIndex1
									{
										OFFSET -14.26970 0.00000 2.88139
										CHANNELS 3 Zrotation Xrotation Yrotation
										JOINT RightHandIndex2
										{
											OFFSET -5.48836 0.00000 0.00000
											CHANNELS 3 Zrotation Xrotation Yrotation
											JOINT RightHandIndex3
											{
												OFFSET -3.01859 0.00000 0.00000
												CHANNELS 3 Zrotation Xrotation Yrotation
												End site
												{
													OFFSET 0.00000 0.00000 0.00000
												}
											}
										}
									}
									JOINT RightHandMiddle1
									{
										OFFSET -14.26970 0.00000 -0.09147
										CHANNELS 3 Zrotation Xrotation Yrotation
										JOINT RightHandMiddle2
										{
											OFFSET -6.17441 0.00000 0.00000
											CHANNELS 3 Zrotation Xrotation Yrotation
											JOINT RightHandMiddle3
											{
												OFFSET -3.56743 0.00000 0.00000
												CHANNELS 3 Zrotation Xrotation Yrotation
												End site
												{
													OFFSET 0.00000 0.00000 0.00000
												}
											}
										}
									}
									JOINT RightHandRing1
									{
										OFFSET -12.69180 0.00000 -3.06433
										CHANNELS 3 Zrotation Xrotation Yrotation
										JOINT RightHandRing2
										{
											OFFSET -5.62556 0.00000 0.00000
											CHANNELS 3 Zrotation Xrotation Yrotation
											JOINT RightHandRing3
											{
												OFFSET -3.56744 0.00000 0.00000
												CHANNELS 3 Zrotation Xrotation Yrotation
												End site
												{
													OFFSET 0.00000 0.00000 0.00000
												}
											}
										}
									}
									JOINT RightHandPinky1
									{
										OFFSET -11.11390 0.00000 -6.03719
										CHANNELS 3 Zrotation Xrotation Yrotation
										JOINT RightHandPinky2
										{
											OFFSET -4.52789 0.00000 0.00000
											CHANNELS 3 Zrotation Xrotation Yrotation
											JOINT RightHandPinky3
											{
												OFFSET -2.46976 0.00000 0.00000
												CHANNELS 3 Zrotation Xrotation Yrotation
												End site
												{
													OFFSET 0.00000 0.00000 0.00000
												}
											}
										}
									}
								}
							}
						}
					}
					JOINT LeftShoulder
					{
						OFFSET 0.01000 7.91373 5.19711
						CHANNELS 3 Zrotation Xrotation Yrotation
						JOINT LeftArm
						{
							OFFSET 18.41580 0.00000 0.00000
							CHANNELS 3 Zrotation Xrotation Yrotation
							JOINT LeftForeArm
							{
								OFFSET 29.11090 0.00000 0.00000
								CHANNELS 3 Zrotation Xrotation Yrotation
								JOINT LeftHand
								{
									OFFSET 24.65040 0.00000 0.00000
									CHANNELS 3 Zrotation Xrotation Yrotation
									JOINT LeftHandThumb1
									{
										OFFSET 5.35114 -0.85590 3.97906
										CHANNELS 3 Zrotation Xrotation Yrotation
										JOINT LeftHandThumb2
										{
											OFFSET 4.52789 0.00000 0.00000
											CHANNELS 3 Zrotation Xrotation Yrotation
											JOINT LeftHandThumb3
											{
												OFFSET 2.46977 0.00000 0.00000
												CHANNELS 3 Zrotation Xrotation Yrotation
												End site
												{
													OFFSET 0.00000 0.00000 0.00000
												}
											}
										}
									}
									JOINT LeftHandIndex1
									{
										OFFSET 14.26970 0.00000 2.88139
										CHANNELS 3 Zrotation Xrotation Yrotation
										JOINT LeftHandIndex2
										{
											OFFSET 5.48836 0.00000 0.00000
											CHANNELS 3 Zrotation Xrotation Yrotation
											JOINT LeftHandIndex3
											{
												OFFSET 3.01859 0.00000 0.00000
												CHANNELS 3 Zrotation Xrotation Yrotation
												End site
												{
													OFFSET 0.00000 0.00000 0.00000
												}
											}
										}
									}
									JOINT LeftHandMiddle1
									{
										OFFSET 14.26970 0.00000 -0.09147
										CHANNELS 3 Zrotation Xrotation Yrotation
										JOINT LeftHandMiddle2
										{
											OFFSET 6.17440 0.00000 0.00000
											CHANNELS 3 Zrotation Xrotation Yrotation
											JOINT LeftHandMiddle3
											{
												OFFSET 3.56744 0.00000 0.00000
												CHANNELS 3 Zrotation Xrotation Yrotation
												End site
												{
													OFFSET 0.00000 0.00000 0.00000
												}
											}
										}
									}
									JOINT LeftHandRing1
									{
										OFFSET 12.69180 0.00000 -3.06433
										CHANNELS 3 Zrotation Xrotation Yrotation
										JOINT LeftHandRing2
										{
											OFFSET 5.62556 0.00000 0.00000
											CHANNELS 3 Zrotation Xrotation Yrotation
											JOINT LeftHandRing3
											{
												OFFSET 3.56744 0.00000 0.00000
												CHANNELS 3 Zrotation Xrotation Yrotation
												End site
												{
													OFFSET 0.00000 0.00000 0.00000
												}
											}
										}
									}
									JOINT LeftHandPinky1
									{
										OFFSET 11.11390 0.00000 -6.03719
										CHANNELS 3 Zrotation Xrotation Yrotation
										JOINT LeftHandPinky2
										{
											OFFSET 4.52789 0.00000 0.00000
											CHANNELS 3 Zrotation Xrotation Yrotation
											JOINT LeftHandPinky3
											{
												OFFSET 2.46976 0.00000 0.00000
												CHANNELS 3 Zrotation Xrotation Yrotation
												End site
												{
													OFFSET 0.00000 0.00000 0.00000
												}
											}
										}
									}
								}
							}
						}
					}
					JOINT pCube4
					{
						OFFSET 0.00000 10.91090 1.10792
						CHANNELS 3 Zrotation Xrotation Yrotation
						End site
						{
							OFFSET 0.00000 0.00000 0.00000
						}
					}
				}
			}
		}
	}
	JOINT RightUpLeg
	{
		OFFSET -9.98441 0.00000 0.00000
		CHANNELS 3 Zrotation Xrotation Yrotation
		JOINT RightLeg
		{
			OFFSET 0.00000 -42.11790 0.00000
			CHANNELS 3 Zrotation Xrotation Yrotation
			JOINT RightFoot
			{
				OFFSET 0.00000 -45.00020 -0.00001
				CHANNELS 3 Zrotation Xrotation Yrotation
				JOINT RightForeFoot
				{
					OFFSET 0.00000 -3.74820 0.00000
					CHANNELS 3 Zrotation Xrotation Yrotation
					JOINT RightToeBase
					{
						OFFSET 0.00000 0.06325 14.43120
						CHANNELS 3 Zrotation Xrotation Yrotation
						End site
						{
							OFFSET 0.00000 0.00000 0.00000
						}
					}
				}
			}
		}
	}
	JOINT LeftUpLeg
	{
		OFFSET 9.98441 0.00000 0.00000
		CHANNELS 3 Zrotation Xrotation Yrotation
		JOINT LeftLeg
		{
			OFFSET 0.00000 -42.11800 0.00000
			CHANNELS 3 Zrotation Xrotation Yrotation
			JOINT LeftFoot
			{
				OFFSET 0.00000 -45.00070 0.00000
				CHANNELS 3 Zrotation Xrotation Yrotation
				JOINT LeftForeFoot
				{
					OFFSET 0.00000 -3.74824 0.00000
					CHANNELS 3 Zrotation Xrotation Yrotation
					JOINT LeftToeBase
					{
						OFFSET 0.00000 0.06325 14.43110
						CHANNELS 3 Zrotation Xrotation Yrotation
						End site
						{
							OFFSET 0.00000 0.00000 0.00000
						}
					}
				}
			}
		}
	}
}
MOTION
Frames: 4
Frame Time: 0.050000
-0.012911176548168618 -0.0019484332369459957 -0.024485763055568936 0.036220627350225736 0.036048231555264036 -0.043649874714992126 -2.6483392488389823 0.13830791272247706 -0.8623469696790366 -0.8505751413624204 3.5987147265891277 0.3482319751698052 -1.439448722501467 -2.415322167453176 -1.0704633901472178 0.15616639687911482 -0.0986861234865454 -0.8327880094020799 1.1190399219675007 14.819796289123968 -2.982273626450548 0.3679657382176763 0.6765055871359332 -8.192980104034907 1.408541718076582 -14.232807465402734 -0.6734050671099702 -8.616036250187783 2.8986051236366075 -15.368549410429626 72.58164396534964 -17.6839859330548 21.627575291832954 38.49206170226015 9.138196702496618 97.52596871446131 16.92663976686553 -0.5153650094146477 -2.491563688643916 4.497542780287819 -0.13994203175062625 -1.6366550964645437 0.020325056842876187 0.010622907050483464 -56.22038644170523 -0.011192589122721232 -0.024813867786144004 -56.213393600024325 -38.72063772149084 -0.014692571319348513 -0.0014963811487488335 -0.02692788200534848 0.03495972829507148 0.04567967767891624 -0.026412977390762732 -0.02415156174625301 0.02692046367697709 -36.65916435969084 0.003945106378151784 0.03346327603181305 -0.03721906702692055 -0.016554348681269728 -0.01656889576566443 0.016626600590654194 0.005477350247497793 0.01681030342750221 -19.78810312748115 0.03791427692012342 -0.01887955206058767 -0.03955576592471014 0.02201529767866845 0.042372088082155014 0.0416001282687847 0.022734376786780607 0.0017898455387573519 24.05111281207793 -0.04611299101968727 -0.026400158942077784 28.91158948955347 0.002980673370086837 0.029067042471301503 28.878338371599085 -0.04071554075560811 0.03053990849682718 7.337512506027826 1.8377709776651916 12.743116846530006 -71.95079688206133 9.202914857232049 -13.411081787080409 -50.58758471937007 13.230342361303988 -105.13519606687305 -5.911519414222336 0.9545680886126764 -3.8545723597315416 -0.4774328518776065 0.04357383726048878 -8.082023022284757 -0.010711187777049793 0.03300534668120225 44.55897402597459 0.03463898560371466 -0.029574243439372313 44.522037255717954 12.465778158516917 0.03595448045087681 -0.009384795969693788 -0.04298627620155505 -0.003263537955767078 0.004038790558587784 0.0011127434744300435 0.03752913939565557 -0.028273299733788636 11.152901575605952 -0.02180302863209445 0.029861626986141823 -0.0017521441986994817 0.011686253833666638 0.013116357975814614 -0.018049527285364627 -0.010137425532753732 -0.024728181176454464 4.735146824301524 -0.02377626541109424 -0.04377335407523132 -8.503003853346807e-05 0.010762456814671669 0.0312806463097526 -0.025885773135818677 -0.008717141040099267 0.03583205975753629 -5.603386406049396 0.026772821914461568 0.020769928410187842 -6.694428326534825 0.01997002161559557 0.012266313297852901 -6.672966809356695 0.023702955196053303 -0.03369582505117905 0.038172947349184694 -0.021629371182367463 0.030550244546363858 8.052554416095404 3.5138428662479804 -19.21949526089912 0.00035699594743644986 10.444972938933075 0.025199871595124206 -5.576215357992323 -15.617471960555827 3.222400366004967 -0.015086116438798914 -0.01529666848405484 -0.0007532538489622127 0.01946520499518723 4.70476355604544 0.004251869563594849 12.448220312934781 -8.282785266047041 6.922754007723863 -0.029254835408715683 46.38340852440412 0.002903110581183149 -4.31175631561907 -14.753921754762175 -3.7947577225520095 0.005419958365955886 0.049047645059275315 0.005582674618780477 0.00043888760001788363 -10.755589391701651 -0.011439129153066788 
0.00883294595005868 -0.009083951769966013 -0.028646446329088488 0.0449215488451977 -0.04194799206386046 0.016166873004190976 -2.7561185578218823 0.03523149119481307 -0.8080577048494044 -0.9213392522487 3.5501693643913352 0.3952550106500348 -1.4010354285477225 -2.4985174603706204 -0.8990195713193472 0.13841490418522695 -0.14885457475139216 -0.7859088002684372 1.2825417106433141 15.149109716553804 -2.998046771799216 0.3944318801532708 0.7328194334930379 -8.268697568942581 1.3859179791840859 -14.098689805818259 -0.6627844815670436 -9.388896262885288 2.9912197158203977 -15.373817475688368 71.28578064561852 -21.070477889489474 25.74814397749614 36.85135515759483 7.806048782335939 98.52270526183601 16.20992870454537 -0.5591976990100931 -1.6439796496477233 4.509652524872988 -0.13419960423607485 -1.5928971024183263 0.03835239761960106 0.02029307036342612 -56.25322583372626 -0.009240445375339496 0.0076149176762680525 -56.20641630591682 -38.80879163853493 -0.018214396267683824 0.017137836889340664 -0.022077878421551466 0.004055171340199508 -0.00010405427354966156 0.022299930995025447 -0.047760223626957504 0.02840151122882073 -36.7319713222852 -0.009711136100321602 0.014631787516499826 -0.034610744513527046 0.044553845423696836 0.0020492921910668857 -0.04161308168805431 0.04291583633359329 0.04845999383629627 -19.74308778596367 -0.03373205473917498 -0.028145610317451622 -0.002892727585871748 0.019067543726787324 0.04103153737395907 0.0038667032760653646 0.022993759433964287 -0.03914549403204705 24.08710920866934 -0.041271150450563863 -0.01105151532979794 28.84441361502725 0.020958783222269038 0.04388618704538499 28.87919215429129 -0.032379450181809884 -0.04771076960052221 7.583069100554277 1.8886812323547661 12.806911301787787 -70.91744969198828 8.846753978890447 -14.471942359319954 -44.7054943623922 11.268167290353745 -103.76751433686464 -3.6127630812910434 1.7739621236554204 -4.828080183263895 -0.4538183128475987 0.06850045619131263 -8.164548270411718 0.03210460205663557 0.005557462852427227 44.559308442380654 -0.0033378811553516196 0.012332090580575333 44.519467704498666 12.494933267130058 -0.0034741100708796002 0.03008090060472284 0.022728467135007962 -0.034376176775317846 -0.03788840554723794 0.024206198836910227 -0.017635942937197186 -0.0003378188442891033 11.085611273420342 0.03830237683540249 -0.038217984024431224 -0.026338839648280023 0.0404902905335736 0.006940878896001691 0.003603998471083833 -0.04422173779127358 0.004139367280559148 4.755952888264286 -0.022475664920373978 0.028717399527684522 -0.012980891871429218 -0.011194489895594552 0.026584266492958947 0.044316023094313955 0.009882968738875158 -0.025005657422463176 -5.612987497349089 -0.04732673446836536 0.04108330439190941 -6.762989571401747 0.020701630020037495 0.029452152325876266 -6.720216038469159 -0.016111363686787856 0.008142558163978023 0.00031477886211491064 0.03157117828352385 0.029192066117731338 8.048514909437241 3.5218020632933085 -19.211160585660704 0.025901223408036043 10.37321462851455 0.03527960939971716 -5.625442394318996 -15.679032313803738 3.1753400402929373 0.027721518386317142 0.021322706297988853 -0.012069725691965743 -0.0003214824282434322 4.734811586800614 0.022114157499673406 12.417631287983776 -8.241022836858944 6.860558453363901 0.008160027817731813 46.42521274202132 -0.03437091428241531 -4.328453342415499 -14.755909951715752 -3.8512178950851754 0.04526913925305878 0.01516348794340341 -0.024414204689123094 -0.043425951912735426 -10.77154831811533 -0.029773278442011504 
-0.03803164367267474 -0.0066246114815612205 -0.008621963198161293 0.022504313696408772 -0.021699364057651875 0.0038505401193566005 -2.842782766868517 -0.04592066801353019 -0.7477843231839163 -0.9317395037075844 3.5876090843844675 0.3636463544875172 -1.49534858420613 -2.5837391277490647 -0.7443703909276077 0.0583732211469126 -0.22513325594853092 -0.7950817346921351 1.3134532983388119 15.38960964523474 -2.9450483601234896 0.42146295080529517 0.8269183220685783 -8.295515216582592 1.4704254651720627 -14.025555721749809 -0.6828651470249961 -9.992750858576317 3.1370325337480653 -15.268529167030193 69.61278103581927 -23.86803580357025 29.879047572506433 35.2463000304317 6.595907858339341 99.16990727768014 15.686104216845791 -0.6069963503788941 -0.9261720201737 4.532076494290124 -0.13026669954748088 -1.578528653765423 -0.026599508182188873 -0.010257716049837851 -56.20091740308713 -0.02151786465007018 -0.0334460753959353 -56.240005104919106 -38.80599596691123 -0.017928719249087375 -0.024159732328248494 -0.026199191614660926 0.024446556148444935 0.017344184894742556 -0.011246621185990829 0.019222835540650973 -0.0069278043585754845 -36.68442358976748 0.038857980980886185 -0.032782723030572 0.02661815512283845 -0.030514881128345887 -0.011905639477138706 0.03853138218869606 -0.0432970363768542 -0.028609723871272422 -19.77286428129616 -0.01580344133470542 -0.03344120096096047 -0.022352491519454044 -0.026180990969949955 0.032909125285055664 0.01532462024693568 0.041207940821428785 0.029203401591406244 24.036892849787428 -0.030126377892967852 0.03779890919019234 28.844110239808263 -0.004339648655290933 0.025380625420469784 28.85633697034624 -0.03910100731308401 -0.004842039004020764 7.6922404618799884 1.906057561813862 12.696661323815906 -69.70179404901108 8.961053907167884 -15.469395237636059 -39.1499533992354 8.759085148380768 -102.51634365967188 -1.43135006503006 2.4998506690321936 -5.765762559460234 -0.4420955016032679 0.06090649697937796 -8.15415876262772 -0.0004887797451486432 0.03961019667956559 44.54865592716365 0.0136940636765997 0.03781779703323851 44.54979026660327 12.489660976954386 -0.03864938327654628 0.0021111438048052556 0.022046802785471296 -0.016430846139737294 0.03513354955499348 -0.0018618403521890796 -0.048839451624666186 0.00870075496757244 11.078429663936202 -0.034493478865939495 -0.031948737822912195 -0.019894306174670095 -0.025455609666526182 0.03820983786992827 -0.008434025265040368 0.008239272454221975 0.02803744266707832 4.780844653379612 -0.03687969190602334 -0.012387580179027724 0.031945040712439074 0.011010117146230729 -0.03874130734438565 -0.047344491421817236 -0.0029834065995835092 0.03540474796771203 -5.600889312215984 -0.04553926617872637 0.04552164467897253 -6.731456346371748 0.03883548196207115 0.01400981638407016 -6.756817582480711 0.008656302927878595 0.005492830374541608 -0.014761604995172279 0.039238926523453094 0.020722958562124475 8.048565811841497 3.4494677401657423 -19.18914175097969 0.042181626011283724 10.389303041214779 0.014879011686035356 -5.607813445772307 -15.699510109150218 3.18278234230285 0.0020304260186432945 -0.005566743723228925 -0.026768284119827786 0.021942124735376357 4.693324148471326 0.019684888319617032 12.452401625298334 -8.194604601853555 6.892635296416278 -0.028756733094074692 46.39391332471609 0.029537925111484346 -4.361585232866903 -14.779233332501585 -3.7957754475362004 -0.0020782612256164705 0.032468387595337385 0.02807797050177565 -0.010867337487559206 -10.742548522223174 -0.029279903839493478 
-0.019642999153468732 -0.0018970394823774714 -0.023025285530299564 0.047640795647910794 0.00562957267681052 0.014459757109183234 -3.0376926621134164 -0.21625297777785396 -0.769916077846185 -0.9764618179099168 3.6098532380563233 0.3959956112693358 -1.5765458801313965 -2.6269387915362716 -0.561986328817883 -0.0610204202697713 -0.18535540383517862 -0.7588733742966763 1.3377460243631971 15.599662685547184 -2.887554307969415 0.42890360261611793 0.9130743110956787 -8.41393821259602 1.4942074301955932 -13.92719631720821 -0.6993047726141499 -10.531069991605369 3.3133445133722397 -15.144201453071366 67.46189768835545 -25.07487106591779 34.085761709557104 32.05240954448983 5.088513041816513 99.97327316341303 14.960820963455406 -0.6209688017784838 -0.4269421357153724 4.510182721887944 -0.09656220330523951 -1.6028783551710037 0.035267595031711216 -0.017554397778970346 -56.2625725394981 -0.020421436420571096 -0.030973651708563057 -56.268487938732704 -38.723719918024756 0.013676757889851919 0.005321772222448347 0.009647687264843986 0.0327120493428414 -0.024076583309523888 0.005281671961476372 -0.001561883975667936 0.038395882144342974 -36.65009737865537 0.045835595860983507 -0.02010984936388602 0.008763191417972495 -0.015551061207348638 -0.029431426509984624 0.015652631852674726 -0.040641969060790886 -0.039802535097191866 -19.777138325868258 -0.02117981467576048 -0.005462415392514951 0.037679103251022354 -0.019802054553804606 -0.009881909752211395 -0.007381320812017798 -0.017888005066172597 0.04884170278793517 24.090567075263593 0.024194402513040093 -0.01273577914970354 28.875022288354803 0.04920779103651823 0.038866252138129706 28.896056834627707 0.005941373880920882 -0.00412418355157408 7.897833802375943 1.8613106530460524 12.67987520546097 -68.393571129991 9.196326399461121 -16.95269506133753 -32.5817756368578 5.700992552132841 -101.44547644456719 0.6753494044358864 2.851372416181308 -6.2957950449597115 -0.4777246025470728 0.06619594861698065 -8.1388981024405 -0.01564729784629206 0.04779228732996333 44.54401076918704 -0.04759076111676427 0.042077525276308 44.55128515484949 12.482470137889583 -0.03352912953904561 0.030606982562733833 0.023892232195255072 0.03287372217468707 0.018888967917787134 -0.029314422883005734 0.028499056273698434 0.011191034153954026 11.084987841831872 -0.04874409062674372 -0.003125954008066301 -0.02155169338641458 -0.007378894275992896 -0.03175660417282646 -0.045605899418346 0.004728895058917965 -0.01646775621310261 4.8021710474886445 0.0015288649446757703 0.012186718984751784 -0.04094585894179626 0.033157953550671755 0.013529215120227507 -0.01868583491051855 -0.024316899496395806 0.026741680104506785 -5.592431151427107 0.01689059194694005 -0.027549963518091882 -6.731865768267392 -0.04942580075346534 0.0010331660161495408 -6.686476762047148 -0.044377912225611736 0.048488439418422555 -0.04712196292684812 0.018610993135801092 0.026331683645004007 8.068531150427834 3.5318067900226566 -19.207469722783028 -0.031614319193634575 10.35411269346875 -0.014533274032728395 -5.618705514223017 -15.657131218364942 3.2002753961697126 0.005971231027019909 0.006831478111835424 0.024075103533860366 -0.030809967076673623 4.678423601771762 0.001881298282084004 12.437206815561963 -8.260942491540563 6.925075827160391 -0.03173895911971382 46.40877231214971 0.04332991747520608 -4.295622416405106 -14.769989589608128 -3.8321543326080936 0.00939208782431885 0.028567589072704288 0.04416344717034447 -0.015335875421736428 -10.74777747426076 -0.015680644632856205 
